Coordinates
datacolumns 11
datarows 48
range 1.1 1.57
inDegrees=yes
Units are S.I. units (second, meters, Newtons, ...)
If the header above contains a line with 'inDegrees', this indicates whether rotational values are in degrees (yes) or radians (no).
endheader
time	pelvis_tilt	pelvis_tx	pelvis_ty	hip_flexion_l	hip_flexion_r	knee_angle_l	knee_angle_r	ankle_angle_l	ankle_angle_r	lumbar
1.1	-22.02880657	0.18631385	0.8968041	55.43617008	55.43617008	-40.87275467	-40.87275467	8.10135294	8.10135294	-22.75231422
1.11	-21.83050025	0.18869511	0.89989411	54.62095364	54.62095364	-40.14109785	-40.14109785	8.05459784	8.05459784	-22.32672596
1.12	-21.61668491	0.19114016	0.90297826	53.78511101	53.78511101	-39.40878996	-39.40878996	8.02042795	8.02042795	-21.90789664
1.13	-21.40316506	0.1936273	0.90600661	52.95085087	52.95085087	-38.68502538	-38.68502538	7.99991957	7.99991957	-21.48160905
1.14	-21.14685466	0.19620661	0.90907886	52.0641172	52.0641172	-37.96009201	-37.96009201	7.98196879	7.98196879	-21.08929096
1.15	-20.88827212	0.1988359	0.91210867	51.17325731	51.17325731	-37.2345361	-37.2345361	7.9719801	7.9719801	-20.69238787
1.16	-20.6153316	0.20151744	0.91512941	50.26546213	50.26546213	-36.51097963	-36.51097963	7.96656564	7.96656564	-20.31066182
1.17	-20.56564656	0.20408944	0.91754313	49.63572539	49.63572539	-35.83908293	-35.83908293	8.00479169	8.00479169	-19.61685881
1.18	-20.02468429	0.20703122	0.92104208	48.40826241	48.40826241	-35.07814015	-35.07814015	7.95216185	7.95216185	-19.56882569
1.19	-19.71919657	0.20982679	0.92392243	47.4764104	47.4764104	-34.37435774	-34.37435774	7.94067905	7.94067905	-19.20566641
1.2	-19.41549002	0.21264492	0.92672877	46.55152998	46.55152998	-33.67832302	-33.67832302	7.92400992	7.92400992	-18.83796804
1.21	-19.10644745	0.21547928	0.92946916	45.62905186	45.62905186	-32.99542288	-32.99542288	7.89907365	7.89907365	-18.47689139
1.22	-18.79038768	0.21832861	0.93213091	44.70819527	44.70819527	-32.32488213	-32.32488213	7.86381914	7.86381914	-18.12275649
1.23	-18.47064907	0.22118594	0.93473448	43.79136089	43.79136089	-31.66511087	-31.66511087	7.81581754	7.81581754	-17.7750103
1.24	-18.16622212	0.22405286	0.937235	42.89609163	42.89609163	-31.01531849	-31.01531849	7.75731232	7.75731232	-17.4154438
1.25	-17.84540545	0.22692324	0.93967775	41.99540944	41.99540944	-30.37899294	-30.37899294	7.68147718	7.68147718	-17.07697236
1.26	-17.79622017	0.22960624	0.94142575	41.44738673	41.44738673	-29.83594826	-29.83594826	7.69132356	7.69132356	-16.3968777
1.27	-17.20270534	0.23266009	0.94429627	40.22292822	40.22292822	-29.14360238	-29.14360238	7.49011328	7.49011328	-16.41055868
1.28	-16.87701834	0.23551732	0.94648943	39.34871816	39.34871816	-28.54613252	-28.54613252	7.37578692	7.37578692	-16.09098874
1.29	-16.54831366	0.238356	0.94861066	38.48527857	38.48527857	-27.9653751	-27.9653751	7.25494439	7.25494439	-15.78234401
1.3	-16.21946263	0.24117872	0.95065005	37.63160028	37.63160028	-27.39849837	-27.39849837	7.13828308	7.13828308	-15.47842509
1.31	-15.89470618	0.24398603	0.95261407	36.79185962	36.79185962	-26.84615666	-26.84615666	7.02406152	7.02406152	-15.17846062
1.32	-15.57174685	0.2467736	0.95450132	35.96339354	35.96339354	-26.30773721	-26.30773721	6.92285263	6.92285263	-14.88220127
1.33	-15.25402196	0.24954176	0.95631658	35.14890798	35.14890798	-25.78331262	-25.78331262	6.83033752	6.83033752	-14.58528541
1.34	-14.94098904	0.25229364	0.9580584	34.34797171	34.34797171	-25.27167046	-25.27167046	6.74797062	6.74797062	-14.29131105
1.35	-14.79726674	0.25492294	0.95939288	33.76805944	33.76805944	-24.82049498	-24.82049498	6.73114744	6.73114744	-13.79003677
1.36	-14.33200106	0.25776566	0.96135145	32.78574919	32.78574919	-24.27997997	-24.27997997	6.59433559	6.59433559	-13.70109168
1.37	-14.0307824	0.26048717	0.96290872	32.02017806	32.02017806	-23.80037613	-23.80037613	6.49970184	6.49970184	-13.41206272
1.38	-13.73571675	0.26318783	0.96439769	31.26940142	31.26940142	-23.32914061	-23.32914061	6.39060637	6.39060637	-13.12563122
1.39	-13.43844364	0.26586211	0.96584704	30.52600698	30.52600698	-22.86306114	-22.86306114	6.24768501	6.24768501	-12.856875
1.4	-13.15417073	0.26855578	0.96720565	29.80011791	29.80011791	-22.39810519	-22.39810519	6.07839115	6.07839115	-12.56573387
1.41	-12.87271813	0.27120147	0.96852105	29.09246722	29.09246722	-21.94632138	-21.94632138	5.86873294	5.86873294	-12.2910741
1.42	-12.59304923	0.27382311	0.96977193	28.39431588	28.39431588	-21.49887506	-21.49887506	5.6267092	5.6267092	-12.02118363
1.43	-12.32152405	0.27639358	0.97097428	27.71308739	27.71308739	-21.05719723	-21.05719723	5.37129139	5.37129139	-11.75992514
1.44	-12.05815786	0.27888246	0.97212893	27.0492305	27.0492305	-20.61262455	-20.61262455	5.11772059	5.11772059	-11.51627252
1.45	-11.80142474	0.28136671	0.9732054	26.40406639	26.40406639	-20.20518778	-20.20518778	4.88600191	4.88600191	-11.26056945
1.46	-11.55545515	0.2837778	0.97423159	25.77746456	25.77746456	-19.8025524	-19.8025524	4.68421897	4.68421897	-11.016715
1.47	-11.32096231	0.28612371	0.97519603	25.17354525	25.17354525	-19.41938833	-19.41938833	4.52159013	4.52159013	-10.77656613
1.48	-11.09789029	0.28840774	0.97610444	24.59276048	24.59276048	-19.05793434	-19.05793434	4.39856932	4.39856932	-10.53999733
1.49	-10.89188181	0.29063445	0.97694044	24.03804999	24.03804999	-18.70832645	-18.70832645	4.31455558	4.31455558	-10.29884356
1.5	-10.85214719	0.29272954	0.97739727	23.70280595	23.70280595	-18.42728864	-18.42728864	4.32310183	4.32310183	-9.86303463
1.51	-10.51199339	0.29495206	0.97845347	22.98914047	22.98914047	-18.05743992	-18.05743992	4.23639176	4.23639176	-9.82138943
1.52	-10.33699535	0.2970411	0.9791368	22.49246951	22.49246951	-17.74895766	-17.74895766	4.21886795	4.21886795	-9.58561928
1.53	-10.17192344	0.29908542	0.97977556	22.01237952	22.01237952	-17.44814993	-17.44814993	4.21080137	4.21080137	-9.3521649
1.54	-10.0145497	0.30106736	0.98036993	21.54558503	21.54558503	-17.14901993	-17.14901993	4.20976016	4.20976016	-9.12243286
1.55	-9.87219849	0.30298445	0.98092042	21.10572002	21.10572002	-16.86098673	-16.86098673	4.20603519	4.20603519	-8.88971708
1.56	-9.73779668	0.30485472	0.98143878	20.67705232	20.67705232	-16.57439662	-16.57439662	4.20243091	4.20243091	-8.66030984
1.57	-9.71772764	0.30663779	0.98171914	20.39383699	20.39383699	-16.32152159	-16.32152159	4.22815839	4.22815839	-8.28986165
